<svg xmlns="http://www.w3.org/2000/svg" viewBox="0 0 333 180">
	<g fill="#F7A41D">
		<g>
			<polygon points="46,22 28,44 22,44 22,95 31,95 12,117 0,117 0,22" shape-rendering="crispEdges" />
		</g>
		<g>
			<polygon points="56,22 111,22 111,44 37,44" shape-rendering="crispEdges" />
			<polygon points="116,95 97,117 42,117 42,95" shape-rendering="crispEdges" />
			<polygon points="150,0 52,117 3,140 101,22" shape-rendering="crispEdges" />
		</g>
		<path transform="translate(-80 0)" d="M284.1,105.4c-10.2,7.3-24,12-37.7,12c-29,0-51.1-20.8-51.1-48.3c0-27.3,22.5-48.1,52-48.1
			c14.3,0,29.2,5.5,38.9,14l-13,15c-7.1-6.3-16.8-10-25.9-10c-17,0-30.2,12.9-30.2,29.5c0,16.8,13.3,29.6,30.3,29.6
			c5.7,0,12.8-2.3,19-5.5L284.1,105.4z" />
		<path transform="translate(5 0)" d="M284.1,105.4c-10.2,7.3-24,12-37.7,12c-29,0-51.1-20.8-51.1-48.3c0-27.3,22.5-48.1,52-48.1
			c14.3,0,29.2,5.5,38.9,14l-13,15c-7.1-6.3-16.8-10-25.9-10c-17,0-30.2,12.9-30.2,29.5c0,16.8,13.3,29.6,30.3,29.6
			c5.7,0,12.8-2.3,19-5.5L284.1,105.4z" />
		<g transform="translate(180 0)">
			<polygon points="153,22 153,117 106,117 125,95 131,95 131,45 122,45 141,22" shape-rendering="crispEdges" />
		</g>
	</g>
	<g fill="#333333">
		<path d="M67.1,128.7l-18.3,26.9h17.9v3.6H42.8v-1.4l18.2-26.7H44.2v-3.7h22.9V128.7z" />
		<path d="M71.1,128.6c0-0.7,0.2-1.3,0.7-1.8c0.5-0.5,1.1-0.7,1.8-0.7c0.7,0,1.3,0.2,1.8,0.7s0.7,1.1,0.7,1.8c0,0.7-0.2,1.3-0.7,1.8
			c-0.5,0.5-1.1,0.7-1.8,0.7s-1.3-0.2-1.8-0.7C71.4,129.9,71.1,129.3,71.1,128.6z M71.6,159.3v-22.7h4v22.7H71.6z" />
		<path d="M102.5,157.4c0,8.4-4.1,12.6-12.2,12.6c-2.8,0-5.3-0.5-7.3-1.6v-3.9c2.5,1.4,5,2.1,7.3,2.1c5.5,0,8.3-2.9,8.3-8.7v-2.4
			h-0.1c-1.7,2.9-4.3,4.3-7.7,4.3c-2.8,0-5.1-1-6.8-3.1s-2.6-4.7-2.6-8.1c0-3.9,0.9-6.9,2.8-9.2s4.4-3.4,7.5-3.4c3,0,5.3,1.2,6.7,3.6
			h0.1v-3.1h4V157.4z M98.5,145.8c0-1.8-0.6-3.3-1.8-4.5s-2.7-1.9-4.4-1.9c-2.2,0-3.9,0.8-5.1,2.4s-1.8,3.8-1.8,6.6
			c0,2.4,0.6,4.4,1.8,5.8s2.7,2.2,4.7,2.2c2,0,3.6-0.7,4.8-2.1s1.9-3.2,1.8-5.4V145.8z" />
		<path d="M122,133.2h15.8v-8.9h3.5v8.9h16v18.7h-3.4v-2.2h-12.6V165h-3.5v-15.3h-12.4v2.2H122V133.2z M125.3,146.7h12.4v-10.4h-12.4
			V146.7z M153.9,136.3h-12.6v10.4h12.6V136.3z" />
		<path d="M161.8,131.5h19.7c-1.4-2.6-2.5-4.5-3.2-5.7l3.2-1.5c0.8,1.2,1.9,3.1,3.4,5.7l-3,1.5h19.3v3h-7.6
			c-1.5,7.8-4.6,14.1-9.4,18.8c3.6,2.7,9.4,5,17.3,7.1c-1.3,1.4-2.2,2.6-2.9,3.6c-7.7-2.7-13.4-5.5-17.1-8.4
			c-3.7,2.9-9.6,5.8-17.7,8.7c-0.7-1-1.5-2-2.5-3.2c7.8-2.4,13.7-5,17.7-7.9c-5-5.3-8.2-11.6-9.5-18.8h-7.7V131.5z M190.1,134.5
			h-17.3c1.2,6.7,4.2,12.3,8.8,16.7C186.1,147,188.9,141.5,190.1,134.5z" />
		<path d="M203.7,135.8v-3H217v3c-1.3,2.7-2.9,5.2-4.7,7.5v21.1h-3.2v-17.4c-1.5,1.6-3.1,3.1-4.9,4.5c-0.2-1-0.6-2.1-1.1-3.4
			c4.2-3.4,7.7-7.5,10.5-12.4H203.7z M207.7,125.9l2.9-1.4c1,1.6,2.1,3.5,3.2,5.6l-3,1.6C209.7,129.4,208.7,127.5,207.7,125.9z
			M212.8,145.6l2.1-1.8c1.7,1.9,3.2,3.6,4.6,5.3l-2.5,2C215.6,149.3,214.2,147.4,212.8,145.6z M217,160h11.5v-20.1h-9.8v-3.2h9.8
			v-12h3.3v12h10.4v3.2h-10.4V160h11.6v3.2H217V160z" />
		<path d="M248.5,127.3h35.3v3.2h-31.8v28.6h32.4v3.1h-35.9V127.3z M255.1,135l2.3-2.2c3.4,2.8,7,5.9,10.7,9.3
			c2.9-3.1,5.6-6.5,8.2-10.1l3,2c-2.9,3.7-5.8,7.2-8.7,10.3c3.4,3.1,6.9,6.4,10.6,10l-2.8,2.9c-3.3-3.5-6.7-6.9-10.2-10.3
			c-4,4-8,7.5-12.1,10.6c-0.7-0.8-1.5-1.7-2.6-2.7c4.3-2.9,8.4-6.3,12.2-10.2C262.3,141.4,258.7,138.2,255.1,135z" />
	</g>
</svg>